<svg width="60.000000" height="60.000000" viewBox="0 0 60 60" fill="none" xmlns="http://www.w3.org/2000/svg" xmlns:xlink="http://www.w3.org/1999/xlink">
	<desc>
			Created with Pixso.
	</desc>
	<defs/>
	<path id="Vector" d="M41.13 27.8699C41.4031 28.1553 41.6172 28.4917 41.76 28.8601C42.0601 29.5903 42.0601 30.4097 41.76 31.1399C41.6172 31.5083 41.4031 31.8447 41.13 32.1299L32.13 41.1299C31.5651 41.6948 30.799 42.0122 30 42.0122C29.201 42.0122 28.4349 41.6948 27.87 41.1299C27.3051 40.5652 26.9878 39.7988 26.9878 39C26.9878 38.2012 27.3051 37.4348 27.87 36.8699L31.77 33L21 33C20.2043 33 19.4413 32.6838 18.8787 32.1213C18.316 31.5586 18 30.7957 18 30C18 29.2043 18.316 28.4412 18.8787 27.8787C19.4413 27.3162 20.2043 27 21 27L31.77 27L27.87 23.1299C27.5889 22.8511 27.3656 22.5193 27.2134 22.1538C27.061 21.7881 26.9827 21.396 26.9827 21C26.9827 20.604 27.061 20.2119 27.2134 19.8462C27.3656 19.4807 27.5889 19.1489 27.87 18.8701C28.1489 18.5889 28.4807 18.3657 28.8463 18.2134C29.2119 18.061 29.604 17.9827 30 17.9827C30.396 17.9827 30.7882 18.061 31.1537 18.2134C31.5193 18.3657 31.8511 18.5889 32.13 18.8701L41.13 27.8699ZM60 30C60 35.9333 58.2405 41.7336 54.9441 46.667C51.6477 51.6006 46.9623 55.4458 41.4805 57.7163C35.9988 59.9871 29.9667 60.5811 24.1473 59.4236C18.3279 58.2659 12.9824 55.4087 8.78687 51.2131C4.59119 47.0176 1.73401 41.6721 0.576416 35.8528C-0.581055 30.0332 0.0129395 24.0012 2.28369 18.5195C4.5542 13.0376 8.39941 8.35229 13.3329 5.05591C18.2664 1.75952 24.0665 0 30 0C33.9397 0 37.8407 0.775879 41.4805 2.28369C45.1202 3.79126 48.4275 6.00098 51.2133 8.78687C56.8394 14.4128 60 22.0435 60 30ZM6 30C6 34.7468 7.40759 39.387 10.0448 43.3337C12.6819 47.2805 16.4302 50.3567 20.8156 52.1731C25.201 53.9895 30.0266 54.4648 34.6821 53.5388C39.3378 52.6128 43.6141 50.3269 46.9706 46.9705C50.327 43.614 52.6128 39.3376 53.5388 34.6821C54.4648 30.0266 53.9896 25.2009 52.1731 20.8157C50.3566 16.4302 47.2805 12.6819 43.3337 10.0447C39.387 7.40747 34.7467 6 30 6C23.6348 6 17.5303 8.52856 13.0294 13.0295C8.52856 17.5303 6 23.6348 6 30Z" fill="#8B5CF6" fill-opacity="1.000000" fill-rule="nonzero"/>
</svg>
