<svg width="60.000000" height="60.000000" viewBox="0 0 60 60" fill="none" xmlns="http://www.w3.org/2000/svg" xmlns:xlink="http://www.w3.org/1999/xlink">
	<desc>
			Created with Pixso.
	</desc>
	<defs/>
	<path id="Vector" d="M18.87 27.8699C18.5969 28.1553 18.3828 28.4917 18.24 28.8601C17.9399 29.5903 17.9399 30.4097 18.24 31.1399C18.3828 31.5083 18.5969 31.8447 18.87 32.1299L27.87 41.1299C28.4349 41.6948 29.2011 42.0122 30 42.0122C30.7989 42.0122 31.5651 41.6948 32.13 41.1299C32.6949 40.5652 33.0123 39.7988 33.0123 39C33.0123 38.2012 32.6949 37.4348 32.13 36.8699L28.23 33L39 33C39.7956 33 40.5587 32.6838 41.1213 32.1213C41.6839 31.5586 42 30.7957 42 30C42 29.2043 41.6839 28.4412 41.1213 27.8787C40.5587 27.3162 39.7956 27 39 27L28.23 27L32.13 23.1299C32.4112 22.8511 32.6344 22.5193 32.7867 22.1538C32.939 21.7881 33.0174 21.396 33.0174 21C33.0174 20.604 32.939 20.2119 32.7867 19.8462C32.6344 19.4807 32.4112 19.1489 32.13 18.8701C31.8511 18.5889 31.5193 18.3657 31.1537 18.2134C30.7881 18.061 30.396 17.9827 30 17.9827C29.604 17.9827 29.2118 18.061 28.8463 18.2134C28.4807 18.3657 28.1489 18.5889 27.87 18.8701L18.87 27.8699ZM0 30C0 35.9333 1.75948 41.7336 5.05591 46.667C8.35236 51.6006 13.0377 55.4458 18.5195 57.7163C24.0013 59.9871 30.0333 60.5811 35.8527 59.4236C41.6721 58.2659 47.0176 55.4087 51.2132 51.2131C55.4088 47.0176 58.266 41.6721 59.4235 35.8528C60.5811 30.0332 59.987 24.0012 57.7164 18.5195C55.4457 13.0376 51.6006 8.35229 46.6671 5.05591C41.7336 1.75952 35.9334 0 30 0C26.0603 0 22.1593 0.775879 18.5195 2.28369C14.8797 3.79126 11.5726 6.00098 8.78679 8.78687C3.16071 14.4128 0 22.0435 0 30ZM54 30C54 34.7468 52.5924 39.387 49.9553 43.3337C47.3181 47.2805 43.5698 50.3567 39.1844 52.1731C34.799 53.9895 29.9734 54.4648 25.3178 53.5388C20.6623 52.6128 16.3859 50.3269 13.0294 46.9705C9.67297 43.614 7.38719 39.3376 6.46115 34.6821C5.53511 30.0266 6.01039 25.2009 7.82689 20.8157C9.64339 16.4302 12.7195 12.6819 16.6663 10.0447C20.6131 7.40747 25.2532 6 30 6C36.3652 6 42.4697 8.52856 46.9706 13.0295C51.4714 17.5303 54 23.6348 54 30Z" fill="#8B5CF6" fill-opacity="1.000000" fill-rule="nonzero"/>
</svg>
