<svg width="114" height="114" viewBox="0 0 114 114" fill="none" xmlns="http://www.w3.org/2000/svg">
<g id="Group">
<path id="Vector" d="M56.7334 7.80107V8.16178H28.2177V7.80107L30.1142 0.333252H54.8369L56.7334 7.80107Z" fill="#EDE9FE"/>
<path id="Vector_2" d="M0.333328 7.80109H84.6203V113.667H0.333328V7.80109Z" fill="#4C1D95"/>
<path id="Vector_3" d="M7.9493 15.2007H76.9936V106.282H7.9493V15.2007Z" fill="#C4B5FD"/>
<path id="Vector_4" d="M76.9937 15.2007V100.7H28.7935C27.2315 100.7 25.6848 100.402 24.2417 99.8227C22.7987 99.2432 21.4877 98.3939 20.3835 97.3233C19.2794 96.2527 18.4037 94.9818 17.8066 93.5832C17.2096 92.1845 16.9028 90.6856 16.9038 89.172V15.2007H76.9937Z" fill="#A78BFA"/>
<path id="Vector_5" d="M17.3666 24.1359C16.808 24.1359 16.2723 24.3507 15.8771 24.7332C15.4819 25.1157 15.2595 25.6346 15.2588 26.1759V36.622C15.2595 37.1633 15.4819 37.6822 15.8771 38.0647C16.2723 38.4472 16.808 38.662 17.3666 38.662H28.1471C28.7055 38.662 29.2409 38.4471 29.6358 38.0645C30.0306 37.682 30.2524 37.1631 30.2524 36.622V26.3562C30.2524 26.0644 30.193 25.7755 30.0777 25.506C29.9624 25.2364 29.7934 24.9915 29.5804 24.7853C29.3673 24.5791 29.1144 24.4156 28.8361 24.3042C28.5578 24.1927 28.2596 24.1355 27.9585 24.1359H17.3666ZM17.3666 53.1736C16.8076 53.1736 16.2715 53.3888 15.8762 53.7718C15.4809 54.1548 15.2588 54.6743 15.2588 55.216V65.6622C15.2595 66.2034 15.4819 66.7223 15.8771 67.1048C16.2723 67.4873 16.808 67.7022 17.3666 67.7022H28.1471C28.7055 67.7022 29.2409 67.4873 29.6358 67.1047C30.0306 66.7221 30.2524 66.2032 30.2524 65.6622V55.3964C30.2524 54.8068 30.0107 54.2415 29.5805 53.8246C29.1503 53.4078 28.5668 53.1736 27.9585 53.1736H17.3666ZM17.3666 81.7921C17.0899 81.7918 16.8159 81.8443 16.5602 81.9467C16.3045 82.049 16.0721 82.1992 15.8763 82.3887C15.6806 82.5782 15.5253 82.8032 15.4193 83.0508C15.3134 83.2985 15.2588 83.564 15.2588 83.8321V94.2904C15.2595 94.8317 15.4819 95.3506 15.8771 95.7331C16.2723 96.1156 16.808 96.3304 17.3666 96.3304H28.1471C28.7055 96.3304 29.2409 96.1155 29.6358 95.7329C30.0306 95.3503 30.2524 94.8315 30.2524 94.2904V84.0124C30.2524 83.7206 30.193 83.4317 30.0777 83.1622C29.9624 82.8926 29.7934 82.6478 29.5804 82.4415C29.3673 82.2353 29.1144 82.0718 28.8361 81.9604C28.5578 81.8489 28.2596 81.7918 27.9585 81.7921H17.3666Z" fill="#6D28D9"/>
<g id="Group_2">
<path id="Vector_6" d="M68.1701 33.1608H53.2972C52.7969 33.1608 52.3171 32.9682 51.9633 32.6254C51.6095 32.2826 51.4108 31.8177 51.4108 31.3329C51.4108 30.8481 51.6095 30.3831 51.9633 30.0403C52.3171 29.6975 52.7969 29.5049 53.2972 29.5049H68.1701C68.6704 29.5049 69.1502 29.6975 69.504 30.0403C69.8578 30.3831 70.0565 30.8481 70.0565 31.3329C70.0565 31.8177 69.8578 32.2826 69.504 32.6254C69.1502 32.9682 68.6704 33.1608 68.1701 33.1608ZM45.681 33.1608H38.0345C37.5342 33.1608 37.0544 32.9682 36.7006 32.6254C36.3468 32.2826 36.1481 31.8177 36.1481 31.3329C36.1481 30.8481 36.3468 30.3831 36.7006 30.0403C37.0544 29.6975 37.5342 29.5049 38.0345 29.5049H45.681C46.1813 29.5049 46.6611 29.6975 47.0149 30.0403C47.3687 30.3831 47.5674 30.8481 47.5674 31.3329C47.5674 31.8177 47.3687 32.2826 47.0149 32.6254C46.6611 32.9682 46.1813 33.1608 45.681 33.1608ZM68.1701 61.4649H60.8003C60.3 61.4649 59.8201 61.2723 59.4664 60.9295C59.1126 60.5867 58.9138 60.1218 58.9138 59.6369C58.9138 59.1521 59.1126 58.6872 59.4664 58.3444C59.8201 58.0016 60.3 57.809 60.8003 57.809H68.1701C68.6704 57.809 69.1502 58.0016 69.504 58.3444C69.8578 58.6872 70.0565 59.1521 70.0565 59.6369C70.0565 60.1218 69.8578 60.5867 69.504 60.9295C69.1502 61.2723 68.6704 61.4649 68.1701 61.4649ZM53.1212 61.4649H38.0295C37.5292 61.4649 37.0494 61.2723 36.6956 60.9295C36.3418 60.5867 36.143 60.1218 36.143 59.6369C36.143 59.1521 36.3418 58.6872 36.6956 58.3444C37.0494 58.0016 37.5292 57.809 38.0295 57.809H53.1212C53.6215 57.809 54.1013 58.0016 54.4551 58.3444C54.8089 58.6872 55.0076 59.1521 55.0076 59.6369C55.0076 60.1218 54.8089 60.5867 54.4551 60.9295C54.1013 61.2723 53.6215 61.4649 53.1212 61.4649ZM24.0496 34.5988H23.9767C23.7269 34.589 23.4817 34.5314 23.2551 34.4293C23.0284 34.3273 22.8249 34.1828 22.6561 34.0041L20.3194 31.5181C20.1526 31.3409 20.0235 31.1337 19.9393 30.9081C19.8552 30.6826 19.8177 30.4432 19.829 30.2037C19.8404 29.9641 19.9003 29.7291 20.0053 29.5119C20.1104 29.2948 20.2586 29.0999 20.4414 28.9382C20.6243 28.7766 20.8381 28.6514 21.0709 28.5699C21.3036 28.4884 21.5507 28.4521 21.7979 28.463C22.0451 28.474 22.2877 28.5321 22.5118 28.6339C22.7359 28.7357 22.937 28.8793 23.1038 29.0564L24.1552 30.1703L34.0252 21.2035C34.3897 20.8723 34.8752 20.6949 35.3747 20.7104C35.8743 20.726 36.347 20.9331 36.6889 21.2864C37.0307 21.6397 37.2138 22.1101 37.1978 22.5941C37.1817 23.0782 36.9679 23.5362 36.6033 23.8675L25.3399 34.104C24.9907 34.4225 24.5291 34.5995 24.0496 34.5988ZM24.0496 63.6365H23.9767C23.7269 63.6267 23.4817 63.5691 23.2551 63.4671C23.0284 63.365 22.8249 63.2205 22.6561 63.0418L20.3194 60.5558C20.1526 60.3786 20.0235 60.1714 19.9393 59.9459C19.8552 59.7203 19.8177 59.4809 19.829 59.2414C19.8404 59.0018 19.9003 58.7668 20.0053 58.5496C20.1104 58.3325 20.2586 58.1376 20.4414 57.9759C20.6243 57.8143 20.8381 57.6892 21.0709 57.6076C21.3036 57.5261 21.5507 57.4898 21.7979 57.5007C22.0451 57.5117 22.2877 57.5698 22.5118 57.6716C22.7359 57.7734 22.937 57.917 23.1038 58.0941L24.1552 59.208L34.0252 50.2412C34.3897 49.91 34.8752 49.7326 35.3747 49.7481C35.8743 49.7637 36.347 49.9709 36.6889 50.3241C37.0307 50.6774 37.2138 51.1478 37.1978 51.6318C37.1817 52.1159 36.9679 52.5739 36.6033 52.9052L25.3399 63.1418C24.9909 63.4604 24.5291 63.6374 24.0496 63.6365ZM24.0496 92.2526H23.9767C23.7269 92.2428 23.4817 92.1852 23.2551 92.0831C23.0284 91.981 22.8249 91.8365 22.6561 91.6579L20.3119 89.1719C20.1353 88.9964 19.9969 88.7883 19.9049 88.56C19.8129 88.3316 19.7693 88.0877 19.7766 87.8427C19.7839 87.5977 19.842 87.3566 19.9474 87.1338C20.0528 86.911 20.2034 86.711 20.3901 86.5457C20.5769 86.3804 20.7961 86.2532 21.0346 86.1717C21.2732 86.0901 21.5262 86.0559 21.7787 86.071C22.0311 86.0861 22.2779 86.1503 22.5042 86.2597C22.7306 86.3691 22.932 86.5215 23.0963 86.7078L24.1477 87.8216L34.0176 78.8524C34.3858 78.54 34.8648 78.3785 35.3535 78.4019C35.8423 78.4253 36.3025 78.6318 36.6371 78.9778C36.9717 79.3238 37.1544 79.7823 37.1467 80.2564C37.139 80.7305 36.9414 81.1832 36.5958 81.5188L25.3324 91.7554C24.9856 92.0732 24.5269 92.251 24.0496 92.2526ZM68.6631 90.8268H53.7927C53.2924 90.8268 52.8126 90.6342 52.4588 90.2914C52.105 89.9486 51.9063 89.4836 51.9063 88.9988C51.9063 88.514 52.105 88.0491 52.4588 87.7063C52.8126 87.3634 53.2924 87.1709 53.7927 87.1709H68.6631C69.1634 87.1709 69.6432 87.3634 69.997 87.7063C70.3508 88.0491 70.5495 88.514 70.5495 88.9988C70.5495 89.4836 70.3508 89.9486 69.997 90.2914C69.6432 90.6342 69.1634 90.8268 68.6631 90.8268ZM46.1664 90.8268H38.5275C38.0272 90.8268 37.5474 90.6342 37.1936 90.2914C36.8398 89.9486 36.6411 89.4836 36.6411 88.9988C36.6411 88.514 36.8398 88.0491 37.1936 87.7063C37.5474 87.3634 38.0272 87.1709 38.5275 87.1709H46.1664C46.6667 87.1709 47.1466 87.3634 47.5003 87.7063C47.8541 88.0491 48.0529 88.514 48.0529 88.9988C48.0529 89.4836 47.8541 89.9486 47.5003 90.2914C47.1466 90.6342 46.6667 90.8268 46.1664 90.8268Z" fill="#EDE9FE"/>
</g>
<path id="Vector_7" d="M113.667 50.59C113.667 51.0748 113.468 51.5397 113.114 51.8826C112.761 52.2254 112.281 52.418 111.78 52.418C111.28 52.418 110.8 52.2254 110.446 51.8826C110.093 51.5397 109.894 51.0748 109.894 50.59V33.8703C109.768 33.4559 109.265 32.481 107.052 32.481H105.155V29.142C105.159 29.0358 105.151 28.9295 105.13 28.8251H107.054C108.556 28.6516 110.07 29.0351 111.293 29.8986C112.515 30.7621 113.355 32.0416 113.644 33.4803L113.667 50.59ZM105.291 94.8997L99.5813 113.667L93.8465 94.8997H105.291Z" fill="#6D28D9"/>
<path id="Vector_8" d="M93.8465 50.59H105.291V94.8996H93.8465V50.59Z" fill="#C4B5FD"/>
<path id="Vector_9" d="M105.293 29.1418V50.5898H93.8485V29.1418C93.8485 27.6712 94.4514 26.2609 95.5246 25.221C96.5977 24.1812 98.0532 23.597 99.5708 23.597C101.088 23.597 102.544 24.1812 103.617 25.221C104.69 26.2609 105.293 27.6712 105.293 29.1418Z" fill="#6D28D9"/>
<path id="Vector_10" d="M105.291 94.8997L99.5809 113.667V94.8997H105.291Z" fill="#7C3AED"/>
<path id="Vector_11" d="M99.5809 50.59H105.291V94.8996H99.5809V50.59Z" fill="#A78BFA"/>
<path id="Vector_12" d="M105.293 29.1421V50.5901H99.5837V23.6095C101.04 23.6087 102.441 24.1491 103.499 25.1194C104.556 26.0897 105.19 27.4161 105.268 28.8253C105.289 28.9296 105.298 29.0359 105.293 29.1421Z" fill="#7C3AED"/>
</g>
</svg>
