<svg width="136" height="68" viewBox="0 0 136 68" fill="none" xmlns="http://www.w3.org/2000/svg">
<g id="Group">
<path id="Vector" d="M134.59 40.2608L122.904 20.0471C122.616 19.5485 122.194 19.1337 121.682 18.8456C121.171 18.5575 120.589 18.4067 119.997 18.4089H101.922V1.7215C101.92 1.26538 101.732 0.828359 101.398 0.505833C101.063 0.183306 100.61 0.00146428 100.137 0H27.9222C27.4494 0.00146428 26.9964 0.183306 26.662 0.505833C26.3277 0.828359 26.1392 1.26538 26.1377 1.7215V56.1624C26.1377 56.8252 26.4106 57.4608 26.8964 57.9294C27.3822 58.3981 28.0411 58.6614 28.7281 58.6614H134.446C134.65 58.6621 134.853 58.6238 135.042 58.5487C135.231 58.4736 135.402 58.3632 135.547 58.2239C135.691 58.0845 135.806 57.9189 135.884 57.7366C135.961 57.5544 136.001 57.3591 136 57.162V45.5364C136.001 43.691 135.516 41.8757 134.59 40.2608Z" fill="#8B5CF6"/>
<path id="Vector_2" d="M136.001 45.5359V53.3104H113.447C112.054 53.3104 110.719 52.7768 109.735 51.8271C108.75 50.8773 108.197 49.5891 108.197 48.2459V18.4085H119.998C120.59 18.4063 121.172 18.5571 121.683 18.8452C122.194 19.1332 122.616 19.5481 122.905 20.0467L134.59 40.2604C135.516 41.8753 136.001 43.6906 136.001 45.5359Z" fill="#A78BFA"/>
<path id="Vector_3" d="M128.545 58.6696C128.555 60.5805 127.941 62.4458 126.79 64.0007C125.615 65.6309 123.932 66.8565 121.985 67.4988C120.037 68.1411 117.928 68.1666 115.965 67.5715C114.002 66.9763 112.287 65.7917 111.071 64.1904C109.855 62.5891 109.2 60.6548 109.204 58.6696C109.204 56.1953 110.223 53.8223 112.036 52.0727C113.85 50.3231 116.31 49.3402 118.875 49.3402C121.439 49.3402 123.899 50.3231 125.713 52.0727C127.527 53.8223 128.545 56.1953 128.545 58.6696Z" fill="#A5B4FC"/>
<path id="Vector_4" d="M101.922 1.7215V53.5885H43.0357C41.6444 53.5885 40.2667 53.3242 38.9813 52.8105C37.6959 52.2969 36.5279 51.544 35.5441 50.5949C34.5602 49.6459 33.7798 48.5191 33.2474 47.2791C32.715 46.0391 32.4409 44.71 32.4409 43.3678V0H100.137C100.61 0.00146428 101.063 0.183306 101.397 0.505833C101.732 0.828359 101.92 1.26538 101.922 1.7215Z" fill="#A78BFA"/>
<path id="Vector_5" d="M128.545 58.6697C128.555 60.5805 127.941 62.4458 126.79 64.0008C125.941 64.2487 125.058 64.3704 124.171 64.3617C121.606 64.361 119.146 63.3778 117.333 61.6284C115.52 59.8789 114.5 57.5064 114.5 55.0323C114.491 53.1002 115.115 51.2148 116.284 49.6457C117.723 49.2649 119.234 49.2098 120.699 49.4846C122.164 49.7593 123.544 50.3566 124.73 51.2298C125.917 52.1031 126.878 53.2288 127.54 54.5192C128.202 55.8096 128.546 57.23 128.545 58.6697Z" fill="#C4B5FD"/>
<path id="Vector_6" d="M66.1741 58.6699C66.1726 60.4071 65.6683 62.1095 64.718 63.5852C63.7677 65.0608 62.4092 66.2513 60.7954 67.0223C59.1817 67.7934 57.3768 68.1144 55.5841 67.9493C53.7914 67.7842 52.0821 67.1395 50.6487 66.0878C49.2153 65.0362 48.1148 63.6193 47.4712 61.9968C46.8275 60.3743 46.6662 58.6107 47.0055 56.9045C47.3447 55.1984 48.1711 53.6175 49.3915 52.34C50.6118 51.0624 52.1777 50.139 53.9128 49.6737C54.7519 49.4257 55.6256 49.304 56.5032 49.3127C57.7753 49.3138 59.0347 49.5568 60.2094 50.0277C61.3841 50.4987 62.451 51.1884 63.3492 52.0575C64.2474 52.9265 64.9592 53.9578 65.4439 55.0924C65.9286 56.227 66.1767 57.4427 66.1741 58.6699Z" fill="#A5B4FC"/>
<path id="Vector_7" d="M66.174 58.6699C66.1702 60.5787 65.5572 62.44 64.4183 64.0009C63.5693 64.2489 62.6861 64.3706 61.7991 64.3619C59.2345 64.3612 56.7751 63.378 54.9616 61.6286C53.1481 59.8791 52.129 57.5066 52.1282 55.0325C52.1237 53.1096 52.7482 51.2343 53.9127 49.6737C54.7518 49.4257 55.6256 49.304 56.5031 49.3127C57.7752 49.3138 59.0346 49.5568 60.2093 50.0277C61.384 50.4987 62.451 51.1884 63.3492 52.0575C64.2473 52.9265 64.9591 53.9578 65.4438 55.0924C65.9286 56.227 66.1767 57.4427 66.174 58.6699Z" fill="#C4B5FD"/>
<g id="Group_2">
<path id="Vector_8" d="M34.6771 44.7257H7.27621C6.70369 44.7257 6.15462 44.5063 5.74978 44.1158C5.34495 43.7252 5.11752 43.1956 5.11752 42.6432C5.11752 42.091 5.34495 41.5613 5.74978 41.1707C6.15462 40.7802 6.70369 40.5608 7.27621 40.5608H34.6771C35.2496 40.5608 35.7987 40.7802 36.2035 41.1707C36.6084 41.5613 36.8358 42.091 36.8358 42.6432C36.8358 43.1956 36.6084 43.7252 36.2035 44.1158C35.7987 44.5063 35.2496 44.7257 34.6771 44.7257ZM56.5086 35.2547H18.2769C17.7043 35.2547 17.1553 35.0353 16.7504 34.6448C16.3456 34.2542 16.1182 33.7245 16.1182 33.1722C16.1182 32.6199 16.3456 32.0903 16.7504 31.6997C17.1553 31.3092 17.7043 31.0898 18.2769 31.0898H56.5086C57.0811 31.0898 57.6302 31.3092 58.035 31.6997C58.4398 32.0903 58.6673 32.6199 58.6673 33.1722C58.6673 33.7245 58.4398 34.2542 58.035 34.6448C57.6302 35.0353 57.0811 35.2547 56.5086 35.2547ZM17.0881 24.2593H2.15868C1.58617 24.2593 1.0371 24.0399 0.632264 23.6494C0.227432 23.2589 0 22.7292 0 22.1769C0 21.6246 0.227432 21.0949 0.632264 20.7044C1.0371 20.3138 1.58617 20.0944 2.15868 20.0944H17.0881C17.6607 20.0944 18.2097 20.3138 18.6146 20.7044C19.0194 21.0949 19.2468 21.6246 19.2468 22.1769C19.2468 22.7292 19.0194 23.2589 18.6146 23.6494C18.2097 24.0399 17.6607 24.2593 17.0881 24.2593ZM41.0265 12.7558H14.6733C14.1008 12.7558 13.5517 12.5365 13.1469 12.1459C12.742 11.7554 12.5146 11.2257 12.5146 10.6734C12.5146 10.1211 12.742 9.59142 13.1469 9.20088C13.5517 8.81034 14.1008 8.59094 14.6733 8.59094H41.0265C41.599 8.59094 42.1481 8.81034 42.5529 9.20088C42.9578 9.59142 43.1852 10.1211 43.1852 10.6734C43.1852 11.2257 42.9578 11.7554 42.5529 12.1459C42.1481 12.5365 41.599 12.7558 41.0265 12.7558Z" fill="#A5B4FC"/>
</g>
</g>
</svg>
