<svg width="114" height="136" viewBox="0 0 114 136" fill="none" xmlns="http://www.w3.org/2000/svg">
<g id="Group">
<g id="Group_2">
<path id="Vector" d="M49.5993 86.1704C49.0448 85.5417 48.3268 85.0906 47.5307 84.8708C46.7346 84.6509 45.894 84.6715 45.109 84.9302L37.4218 87.4545C37.0013 87.5932 36.5573 87.6398 36.1183 87.5911C35.6793 87.5424 35.2551 87.3996 34.8728 87.1718C34.4905 86.944 34.1587 86.6363 33.8986 86.2684C33.6385 85.9005 33.456 85.4805 33.3626 85.0355L31.638 76.91C31.4606 76.08 31.0565 75.3197 30.4734 74.719C29.8903 74.1183 29.1526 73.7022 28.3475 73.52L27.9845 73.4381L0.333328 115.203L22.8559 113.653L29.1248 136L57.3744 93.3862C56.9333 93.389 56.4967 93.2952 56.0933 93.1112C55.6899 92.9272 55.329 92.6571 55.0342 92.3186L49.5993 86.1704Z" fill="#A78BFA"/>
<path id="Vector_2" d="M49.5993 86.1703C49.1962 85.7115 48.7046 85.3445 48.1561 85.0927C47.6076 84.8409 47.0142 84.7098 46.4138 84.7078C45.9709 84.7076 45.5306 84.7786 45.109 84.9184L37.4218 87.4426C37.0011 87.5814 36.5569 87.628 36.1178 87.5794C35.6786 87.5307 35.2541 87.3879 34.8717 87.1601C34.4892 86.9324 34.1571 86.6246 33.8967 86.2567C33.6364 85.8888 33.4535 85.4688 33.3598 85.0237L32.5088 80.9931L9.72246 114.557L22.8531 113.653L26.5094 126.681L52.0984 88.9987L49.5993 86.1703ZM64.395 86.1703C64.9495 85.5416 65.6676 85.0905 66.4636 84.8706C67.2597 84.6508 68.1003 84.6714 68.8853 84.9301L76.5725 87.4543C76.993 87.5931 77.437 87.6397 77.876 87.591C78.315 87.5423 78.7393 87.3995 79.1215 87.1717C79.5038 86.9439 79.8356 86.6362 80.0957 86.2682C80.3558 85.9003 80.5384 85.4804 80.6317 85.0354L82.3563 76.9099C82.5339 76.0803 82.9381 75.3205 83.5212 74.7202C84.1043 74.12 84.8419 73.7045 85.6468 73.5228L86.0099 73.4409L113.667 115.203L91.1441 113.653L84.8752 136L56.6199 93.3861C57.061 93.3889 57.4976 93.2951 57.901 93.1111C58.3044 92.9271 58.6654 92.6569 58.9601 92.3185L64.395 86.1703Z" fill="#A78BFA"/>
<path id="Vector_3" d="M64.3951 86.1703C64.9496 85.5417 65.6677 85.0906 66.4638 84.8707C67.2598 84.6508 68.1004 84.6715 68.8854 84.9302L76.5726 87.4544C76.9931 87.5932 77.4371 87.6397 77.8761 87.5911C78.3151 87.5424 78.7394 87.3996 79.1216 87.1717C79.5039 86.9439 79.8358 86.6362 80.0958 86.2683C80.3559 85.9004 80.5385 85.4804 80.6318 85.0355L81.4828 81.0049L104.266 114.557L91.1329 113.653L87.4793 126.681L61.8961 88.9988L64.3951 86.1703Z" fill="#A78BFA"/>
</g>
<path id="Vector_4" d="M68.1674 89.7714L75.5426 92.1932C76.6026 92.5417 77.7215 92.6581 78.8277 92.5349C79.9339 92.4117 81.0029 92.0516 81.9663 91.4778C82.9297 90.904 83.7663 90.1291 84.4225 89.2026C85.0787 88.2761 85.5401 87.2186 85.777 86.0977L87.4279 78.3056L88.9937 77.9546L86.0068 73.4414L85.6437 73.5233C84.8399 73.706 84.1035 74.1219 83.5215 74.7221C82.9395 75.3222 82.5361 76.0815 82.3589 76.9104L80.6343 85.0359C80.541 85.4809 80.3584 85.9008 80.0983 86.2687C79.8382 86.6366 79.5064 86.9444 79.1241 87.1722C78.7419 87.4 78.3176 87.5428 77.8786 87.5915C77.4396 87.6402 76.9956 87.5936 76.5751 87.4548L68.8879 84.9306C68.1029 84.6719 67.2623 84.6513 66.4662 84.8711C65.6702 85.091 64.9521 85.5421 64.3976 86.1708L58.9627 92.3132C58.7298 92.6213 58.4318 92.8705 58.0914 93.042C57.751 93.2134 57.3772 93.3025 56.9983 93.3025C56.6195 93.3025 56.2457 93.2134 55.9053 93.042C55.5649 92.8705 55.2669 92.6213 55.034 92.3132L49.6019 86.1708C49.1988 85.712 48.7072 85.345 48.1587 85.0932C47.6102 84.8413 47.0168 84.7103 46.4164 84.7083C45.9735 84.708 45.5333 84.7791 45.1116 84.9189L37.4244 87.4431C37.0037 87.5819 36.5595 87.6285 36.1204 87.5798C35.6812 87.5312 35.2567 87.3884 34.8743 87.1606C34.4918 86.9328 34.1597 86.6251 33.8993 86.2572C33.639 85.8893 33.4561 85.4693 33.3624 85.0242L31.6406 76.8987C31.4606 76.071 31.0549 75.3136 30.4715 74.7156C29.8881 74.1176 29.1511 73.7039 28.3473 73.5233L27.9871 73.4414L25.0143 77.94L26.6709 78.3114L28.3218 86.1035C28.5593 87.2242 29.0212 88.2815 29.6779 89.2075C30.3346 90.1336 31.1715 90.908 32.1352 91.4813C33.0989 92.0545 34.1681 92.414 35.2743 92.5366C36.3804 92.6592 37.4992 92.5422 38.5591 92.1932L45.9143 89.7509L51.1422 95.6681C52.0405 96.666 53.1654 97.4178 54.4156 97.8559L56.9969 93.957L59.6009 97.8823C60.8834 97.4495 62.0382 96.6875 62.9566 95.6681L68.1674 89.7714Z" fill="#7C3AED"/>
<path id="Vector_5" d="M49.5998 86.1704C49.1966 85.7117 48.7051 85.3446 48.1566 85.0928C47.6081 84.841 47.0147 84.7099 46.4143 84.708C45.9713 84.7077 45.5311 84.7788 45.1094 84.9186L37.4223 87.4428C37.0016 87.5816 36.5574 87.6282 36.1182 87.5795C35.679 87.5309 35.2546 87.3881 34.8721 87.1603C34.4896 86.9325 34.1575 86.6248 33.8972 86.2569C33.6368 85.8889 33.4539 85.469 33.3603 85.0239L32.5093 80.9933L9.7229 114.557L22.8535 113.653L26.5099 126.681L52.0988 88.9989L49.5998 86.1704ZM81.4888 81.005L80.6378 85.0356C80.5445 85.4806 80.3619 85.9005 80.1018 86.2684C79.8418 86.6363 79.5099 86.944 79.1277 87.1718C78.7454 87.3997 78.3211 87.5425 77.8821 87.5912C77.4431 87.6398 76.9991 87.5933 76.5786 87.4545L68.8914 84.9303C68.1064 84.6716 67.2658 84.6509 66.4698 84.8708C65.6737 85.0907 64.9556 85.5418 64.4011 86.1704L61.9021 88.9989L87.491 126.681L91.1445 113.653L104.278 114.557L81.4888 81.005Z" fill="#8B5CF6"/>
<path id="Vector_6" d="M52.0988 88.9989L49.5997 86.1704C49.1966 85.7117 48.705 85.3446 48.1565 85.0928C47.608 84.841 47.0146 84.7099 46.4142 84.708C45.9713 84.7077 45.531 84.7788 45.1094 84.9186L37.4222 87.4428C37.0015 87.5816 36.5573 87.6282 36.1182 87.5795C35.679 87.5309 35.2545 87.3881 34.872 87.1603C34.4896 86.9325 34.1575 86.6248 33.8971 86.2569C33.6368 85.8889 33.4539 85.469 33.3602 85.0239L32.5092 80.9933L28.538 86.8432C29.1808 88.9216 30.597 90.6522 32.4759 91.6552C34.3547 92.6581 36.5427 92.8515 38.5597 92.1929L45.915 89.7506L49.1232 93.3834L52.1016 88.9959L52.0988 88.9989ZM75.5404 92.1929C77.5384 92.8492 79.7066 92.6693 81.5772 91.692C83.4478 90.7147 84.8708 89.0184 85.5394 86.9689L81.4887 81.005L80.6377 85.0356C80.5444 85.4805 80.3619 85.9005 80.1018 86.2684C79.8417 86.6363 79.5099 86.944 79.1276 87.1718C78.7453 87.3997 78.3211 87.5425 77.8821 87.5912C77.4431 87.6398 76.9991 87.5933 76.5786 87.4545L68.8914 84.9303C68.1064 84.6716 67.2658 84.6509 66.4697 84.8708C65.6736 85.0907 64.9556 85.5418 64.4011 86.1704L61.902 88.9989L64.9173 93.4419L68.1681 89.7652L75.5404 92.1929Z" fill="#A78BFA"/>
<path id="Vector_7" d="M86.1942 19.8707L94.0771 21.6462C94.5852 21.7612 95.0645 21.9843 95.4842 22.3011C95.904 22.6179 96.2551 23.0216 96.5151 23.4862C96.7751 23.9508 96.9383 24.4662 96.9942 24.9995C97.0501 25.5328 96.9976 26.0723 96.84 26.5835L94.392 34.5101C94.175 35.2127 94.158 35.9649 94.343 36.6772C94.528 37.3895 94.9073 38.0322 95.4358 38.5289L101.393 44.1302C101.777 44.4915 102.085 44.9317 102.295 45.4225C102.505 45.9133 102.614 46.444 102.614 46.9806C102.614 47.5172 102.505 48.0479 102.295 48.5387C102.085 49.0295 101.777 49.4697 101.393 49.8309L95.4358 55.4351C94.907 55.9317 94.5275 56.5744 94.3425 57.2868C94.1574 57.9992 94.1746 58.7514 94.392 59.454L96.84 67.3806C96.9976 67.8916 97.0501 68.4309 96.9941 68.964C96.9382 69.4972 96.775 70.0124 96.515 70.4768C96.255 70.9411 95.9038 71.3445 95.4841 71.661C95.0643 71.9775 94.5851 72.2003 94.0771 72.315L86.1942 74.0934C85.4954 74.251 84.8551 74.6119 84.3493 75.1335C83.8435 75.6551 83.4934 76.3153 83.3406 77.0359L81.616 85.1614C81.5054 85.6857 81.2899 86.1804 80.9832 86.6138C80.6764 87.0472 80.2853 87.4098 79.8348 87.6783C79.3843 87.9468 78.8843 88.1152 78.367 88.1729C77.8497 88.2306 77.3264 88.1762 76.8306 88.0132L69.1434 85.489C68.4621 85.2641 67.7324 85.246 67.0414 85.4369C66.3503 85.6277 65.7271 86.0194 65.246 86.5654L59.8111 92.7077C59.4609 93.1044 59.0343 93.4213 58.5586 93.6382C58.0828 93.855 57.5684 93.967 57.0482 93.967C56.528 93.967 56.0136 93.855 55.5378 93.6382C55.0621 93.4213 54.6355 93.1044 54.2854 92.7077L48.8504 86.5654C48.3693 86.0194 47.7461 85.6277 47.055 85.4369C46.364 85.246 45.6343 85.2641 44.953 85.489L37.2658 88.0132C36.77 88.1762 36.2467 88.2306 35.7294 88.1729C35.2121 88.1152 34.7122 87.9468 34.2616 87.6783C33.8111 87.4098 33.42 87.0472 33.1133 86.6138C32.8065 86.1804 32.591 85.6857 32.4805 85.1614L30.7558 77.0359C30.603 76.3153 30.2529 75.6551 29.7471 75.1335C29.2413 74.6119 28.601 74.251 27.9022 74.0934L20.0193 72.315C19.5113 72.2003 19.0321 71.9775 18.6123 71.661C18.1926 71.3445 17.8415 70.9411 17.5814 70.4768C17.3214 70.0124 17.1582 69.4972 17.1023 68.964C17.0463 68.4309 17.0988 67.8916 17.2564 67.3806L19.7044 59.454C19.9218 58.7514 19.939 57.9992 19.7539 57.2868C19.5689 56.5744 19.1894 55.9317 18.6606 55.4351L12.7037 49.8309C12.3189 49.4697 12.0116 49.0295 11.8012 48.5387C11.5909 48.0479 11.4823 47.5172 11.4823 46.9806C11.4823 46.444 11.5909 45.9133 11.8012 45.4225C12.0116 44.9317 12.3189 44.4915 12.7037 44.1302L18.6606 38.5289C19.1891 38.0322 19.5684 37.3895 19.7534 36.6772C19.9384 35.9649 19.9214 35.2127 19.7044 34.5101L17.2564 26.5835C17.0988 26.0723 17.0463 25.5328 17.1022 24.9995C17.1581 24.4662 17.3213 23.9508 17.5813 23.4862C17.8413 23.0216 18.1924 22.6179 18.6122 22.3011C19.032 21.9843 19.5112 21.7612 20.0193 21.6462L27.9022 19.8707C28.601 19.7131 29.2413 19.3521 29.7471 18.8306C30.2529 18.309 30.603 17.6488 30.7558 16.9282L32.4805 8.79979C32.5913 8.27575 32.8071 7.78136 33.114 7.34827C33.4208 6.91519 33.812 6.55296 34.2625 6.28477C34.713 6.01659 35.2128 5.84836 35.73 5.79087C36.2471 5.73337 36.7702 5.78788 37.2658 5.95089L44.953 8.47512C45.6344 8.69851 46.3637 8.71586 47.0545 8.52509C47.7452 8.33433 48.3685 7.94345 48.8504 7.39874L54.2854 1.25635C54.6359 0.86047 55.0627 0.54428 55.5384 0.327944C56.0141 0.111609 56.5283 -0.00012207 57.0482 -0.00012207C57.5681 -0.00012207 58.0823 0.111609 58.558 0.327944C59.0337 0.54428 59.4605 0.86047 59.8111 1.25635L65.246 7.39874C65.7279 7.94345 66.3512 8.33433 67.0419 8.52509C67.7327 8.71586 68.462 8.69851 69.1434 8.47512L76.8306 5.95089C77.3262 5.78788 77.8493 5.73337 78.3665 5.79087C78.8836 5.84836 79.3834 6.01659 79.8339 6.28477C80.2844 6.55296 80.6756 6.91519 80.9824 7.34827C81.2893 7.78136 81.5051 8.27575 81.616 8.79979L83.3406 16.9282C83.4934 17.6488 83.8435 18.309 84.3493 18.8306C84.8551 19.3521 85.4954 19.7131 86.1942 19.8707Z" fill="#6D28D9"/>
<path id="Vector_8" d="M86.5777 46.9938C86.5716 52.636 85.0452 58.1655 82.1689 62.9653C79.2927 67.7651 75.1796 71.6464 70.2887 74.1762C65.3978 76.706 59.9213 77.7848 54.4705 77.2921C49.0196 76.7995 43.8087 74.7548 39.4191 71.3863C35.0295 68.0177 31.634 63.4578 29.6113 58.2152C27.5887 52.9727 27.0185 47.2537 27.9643 41.6964C28.9101 36.1392 31.3348 30.9622 34.9678 26.7431C38.6009 22.524 43.2993 19.4288 48.5389 17.8028C51.2982 16.942 54.166 16.5083 57.0487 16.5158C60.9288 16.5162 64.7708 17.305 68.3551 18.8372C71.9394 20.3693 75.1957 22.6148 77.9381 25.4453C80.6804 28.2757 82.8549 31.6356 84.3373 35.3331C85.8198 39.0305 86.581 42.9929 86.5777 46.9938Z" fill="#A78BFA"/>
<path id="Vector_9" d="M86.577 46.9938C86.5799 52.1513 85.3109 57.2249 82.8894 61.7377C80.468 66.2505 76.9735 70.0544 72.7345 72.7918C69.9752 73.6526 67.1074 74.0863 64.2247 74.0788C57.811 74.0826 51.5703 71.9337 46.4457 67.9567C41.3212 63.9798 37.5912 58.391 35.8195 52.0348C34.0478 45.6787 34.3306 38.9006 36.6252 32.7248C38.9198 26.5491 43.1014 21.3112 48.5383 17.8028C51.2975 16.942 54.1654 16.5083 57.0481 16.5158C60.9282 16.5162 64.7701 17.305 68.3544 18.8372C71.9387 20.3693 75.1951 22.6148 77.9374 25.4453C80.6797 28.2757 82.8542 31.6356 84.3367 35.333C85.8191 39.0305 86.5804 42.9929 86.577 46.9938Z" fill="#8B5CF6"/>
<path id="Vector_10" d="M59.1983 65.7807C58.634 65.7807 58.0929 65.5496 57.6939 65.1382C57.295 64.7268 57.0708 64.1688 57.0708 63.587V36.385L51.5848 40.2488C51.3543 40.4178 51.0934 40.5377 50.8174 40.6015C50.5413 40.6653 50.2557 40.6717 49.9773 40.6203C49.6989 40.5689 49.4332 40.4608 49.1957 40.3022C48.9583 40.1437 48.7539 39.9379 48.5945 39.6969C48.4352 39.456 48.324 39.1846 48.2675 38.8988C48.211 38.613 48.2104 38.3185 48.2657 38.0324C48.3209 37.7464 48.4309 37.4745 48.5893 37.2328C48.7477 36.9911 48.9512 36.7844 49.1879 36.6248L57.9984 30.4181C58.3182 30.1929 58.6915 30.0619 59.0781 30.0394C59.4648 30.0168 59.85 30.1035 60.1924 30.2901C60.5348 30.4767 60.8213 30.7562 61.021 31.0983C61.2207 31.4404 61.326 31.8322 61.3257 32.2316V63.587C61.3257 64.1688 61.1016 64.7268 60.7026 65.1382C60.3036 65.5496 59.7625 65.7807 59.1983 65.7807Z" fill="#F5F3FF"/>
</g>
</svg>
