<svg width="114" height="102" viewBox="0 0 114 102" fill="none" xmlns="http://www.w3.org/2000/svg">
<g id="Group">
<path id="Vector" d="M76.7142 93.0997V102H37.2808V93.0997H46.6882L48.3455 78.0523L48.7355 74.4684V74.3972H65.2351L65.2595 74.4684L65.6494 78.0523L67.3067 93.0997H76.7142Z" fill="#8B5CF6"/>
<path id="Vector_2" d="M65.6496 78.0523H48.3457L48.7357 74.4684V74.3972H65.2353L65.2597 74.4684L65.6496 78.0523Z" fill="#7C3AED"/>
<path id="Vector_3" d="M67.297 93.0925H37.2759V101.99H76.7191V93.0925H67.297Z" fill="#A78BFA"/>
<path id="Vector_4" d="M109.64 0H4.35465C3.28723 0.00251391 2.26441 0.417216 1.51054 1.15314C0.756673 1.88907 0.33331 2.88613 0.333313 3.92563V70.538C0.33331 71.5775 0.756673 72.5745 1.51054 73.3105C2.26441 74.0464 3.28723 74.4611 4.35465 74.4636H109.397C109.958 74.4639 110.513 74.3566 111.031 74.1477C111.549 73.9389 112.02 73.6326 112.417 73.2464C112.813 72.8602 113.128 72.4017 113.342 71.897C113.557 71.3924 113.667 70.8515 113.667 70.3054V3.92563C113.667 2.88531 113.243 1.88753 112.488 1.15147C111.733 0.415405 110.709 0.00125795 109.64 0Z" fill="#C4B5FD"/>
<path id="Vector_5" d="M7.81543 6.80249H106.18V60.9876H7.81543V6.80249Z" fill="#4C1D95"/>
<path id="Vector_6" d="M106.18 6.80249V56.0509H29.8961C26.0313 56.049 22.3254 54.5531 19.5926 51.8918C16.8598 49.2305 15.3237 45.6215 15.3218 41.8579V6.80249H106.18Z" fill="#6D28D9"/>
<path id="Vector_7" d="M91.3128 44.9194C91.3439 44.8434 91.3849 44.7716 91.4347 44.7058V44.682C92.1209 43.5421 92.6767 42.3324 93.0919 41.0744C94.2225 37.5517 94.2007 33.7737 93.0295 30.2636C91.8583 26.7534 89.5957 23.6845 86.5547 21.4817C83.5138 19.2789 79.8449 18.0511 76.0559 17.9682C72.2669 17.8853 68.5451 18.9515 65.4057 21.0191C63.2374 22.436 61.4153 24.2995 60.0683 26.4779C58.8209 28.474 57.9897 30.6899 57.622 32.999C57.2544 35.3081 57.3576 37.6651 57.9257 39.9354C58.4938 42.2056 59.5156 44.3446 60.9329 46.2301C62.3502 48.1156 64.1351 49.7106 66.1856 50.9241C69.1012 52.5843 72.4108 53.4759 75.788 53.5112C77.6978 53.5251 79.5952 53.2118 81.3935 52.5855C82.6727 52.1308 83.9117 51.5752 85.098 50.9241L85.1224 50.9479L90.3623 56.0507H102.719C97.4057 50.9004 91.3128 44.9431 91.3128 44.9194Z" fill="#4C1D95"/>
<path id="Vector_8" d="M111.542 67.6139C111.355 68.3545 110.958 69.029 110.396 69.5601C109.575 70.35 108.467 70.793 107.313 70.793C106.159 70.793 105.051 70.35 104.23 69.5601L95.4319 60.9921H106.18V59.4493L110.396 63.5554C110.94 64.0716 111.333 64.7198 111.535 65.4332C111.736 66.1465 111.738 66.8993 111.542 67.6139Z" fill="#DDD6FE"/>
<path id="Vector_9" d="M106.18 59.4447V60.9874H95.4319L90.3625 56.0507H102.719C103.938 57.2374 105.132 58.4003 106.18 59.4447Z" fill="#5B21B6"/>
<path id="Vector_10" d="M112.382 61.7376L93.2797 43.1348C95.5854 39.4188 96.4143 35.0095 95.61 30.7391C94.8057 26.4687 92.4239 22.6329 88.9142 19.9557C85.4044 17.2785 81.0097 15.9452 76.5596 16.2075C72.1096 16.4699 67.9121 18.3097 64.7596 21.3797C61.6072 24.4497 59.7179 28.5374 59.4485 32.871C59.1791 37.2047 60.5482 41.4845 63.2973 44.9024C66.0464 48.3203 69.9854 50.6398 74.3704 51.4231C78.7555 52.2063 83.2833 51.3991 87.0991 49.1538L106.202 67.759C107.021 68.5567 108.133 69.0048 109.292 69.0048C110.451 69.0048 111.562 68.5567 112.382 67.759C113.202 66.9605 113.663 65.8775 113.663 64.7483C113.663 63.6191 113.202 62.5361 112.382 61.7376Z" fill="#A78BFA"/>
<path id="Vector_11" d="M77.6454 51.7098C87.7325 51.7098 95.9096 43.7465 95.9096 33.9234C95.9096 24.1002 87.7325 16.137 77.6454 16.137C67.5584 16.137 59.3813 24.1002 59.3813 33.9234C59.3813 43.7465 67.5584 51.7098 77.6454 51.7098Z" fill="#8B5CF6"/>
<path id="Vector_12" d="M112.382 61.7373L93.2651 43.1155C92.4999 44.3401 91.5894 45.4729 90.5525 46.4905C90.0513 46.9772 89.5215 47.4352 88.9659 47.8623L107.203 65.6179C108.023 66.4154 109.134 66.8635 110.292 66.8635C111.451 66.8635 112.562 66.4154 113.382 65.6179L113.611 65.3805C113.713 64.722 113.656 64.0491 113.443 63.4163C113.229 62.7834 112.866 62.2083 112.382 61.7373Z" fill="#C4B5FD"/>
<path id="Vector_13" d="M77.6452 16.137C73.293 16.1326 69.0835 17.6484 65.7811 20.4091C63.4693 24.0121 62.5582 28.3019 63.2126 32.5024C63.8671 36.7028 66.0438 40.5364 69.349 43.3094C72.6541 46.0824 76.8694 47.6117 81.232 47.6206C85.5947 47.6295 89.8164 46.1173 93.1335 43.3577C94.8634 40.6652 95.8215 37.5707 95.9081 34.3957C95.9947 31.2206 95.2067 28.081 93.6259 25.3028C92.0452 22.5247 89.7294 20.2094 86.9192 18.5975C84.1089 16.9857 80.9067 16.1361 77.6452 16.137Z" fill="#C4B5FD"/>
</g>
</svg>
