<svg width="114" height="102" viewBox="0 0 114 102" fill="none" xmlns="http://www.w3.org/2000/svg">
<g id="Group">
<g id="Group_2">
<path id="Vector" fill-rule="evenodd" clip-rule="evenodd" d="M26.7653 98.8426C8.40588 92.5014 4.31166 77.6765 3.83926 59.7834C3.72915 55.6152 3.82138 51.473 3.93048 47.3074C12.0351 45.8952 19.7961 43.2944 26.912 39.0699C31.2019 41.6146 35.5483 43.4875 40.2843 44.9835C40.6139 45.0877 40.6798 45.4933 41.3717 45.4933C41.7066 45.4933 41.6366 45.3998 41.8693 45.4661C44.6585 46.2611 47.0159 46.8053 49.8963 47.3074C50.1587 57.2556 50.3794 68.5455 47.4428 78.0542C44.1289 88.7845 37.4478 95.2552 27.0586 98.8426H26.7653ZM41.7712 58.8161C41.5352 58.5753 41.2153 58.4401 40.8817 58.4401C40.5481 58.4402 40.2282 58.5755 39.9923 58.8164L23.8443 75.3095L16.2162 67.5185C16.0995 67.3991 15.9608 67.3043 15.8082 67.2396C15.6556 67.1749 15.492 67.1416 15.3268 67.1416C15.1615 67.1416 14.9979 67.1748 14.8453 67.2395C14.6926 67.3041 14.554 67.3988 14.4372 67.5182C14.3201 67.6377 14.2273 67.7796 14.1639 67.9358C14.1005 68.092 14.0679 68.2594 14.0679 68.4285C14.0679 68.5975 14.1005 68.765 14.1639 68.9211C14.2273 69.0773 14.3201 69.2192 14.4372 69.3387L22.9542 78.0393C23.0711 78.159 23.21 78.2539 23.3629 78.3187C23.5158 78.3834 23.6797 78.4168 23.8452 78.4168C24.0107 78.4168 24.1746 78.3834 24.3275 78.3187C24.4804 78.2539 24.6193 78.159 24.7362 78.0393L41.7715 60.6352C41.8886 60.5159 41.9815 60.3741 42.0448 60.218C42.1082 60.0619 42.1408 59.8946 42.1408 59.7256C42.1407 59.5566 42.1081 59.3893 42.0447 59.2333C41.9813 59.0772 41.8884 58.9354 41.7712 58.8161ZM50.2481 30.4408V17.8934C50.2491 17.6763 50.334 17.4685 50.4842 17.315C50.6344 17.1615 50.8379 17.0749 51.0504 17.0738H80.9298V30.4408H50.2481ZM83.4479 3.85957C83.4489 3.64254 83.5338 3.43468 83.684 3.28121C83.8342 3.12774 84.0377 3.04107 84.2501 3.04004H98.4451C98.6576 3.04107 98.8611 3.12774 99.0113 3.28121C99.1615 3.43468 99.2464 3.64254 99.2474 3.85957V30.4408H83.4479V3.85957ZM23.0158 23.6256C23.0158 24.2967 22.4639 24.8328 21.9384 25.1501C21.248 25.5672 20.4034 25.7593 19.606 25.7593H6.71914C5.92227 25.7593 5.07788 25.5669 4.38806 25.1499C3.86277 24.8325 3.31091 24.2967 3.31091 23.6256V21.8475C3.31091 21.177 3.86303 20.6414 4.38806 20.3243C5.07813 19.9075 5.92227 19.7151 6.71914 19.7151L18.3881 19.7224C18.6071 19.7621 18.6645 19.8279 18.9157 19.8247L22.0214 19.7999C22.3645 19.8918 22.9312 20.1865 23.0158 20.4715V23.6256Z" fill="#C4B5FD"/>
<path id="Vector_2" fill-rule="evenodd" clip-rule="evenodd" d="M42.0951 58.4857C42.2548 58.6485 42.3814 58.8418 42.4678 59.0546C42.5542 59.2675 42.5987 59.4956 42.5987 59.726C42.5987 59.9564 42.5542 60.1845 42.4678 60.3973C42.3814 60.6102 42.2548 60.8035 42.0951 60.9662L25.0599 78.3703C24.9004 78.5333 24.711 78.6626 24.5026 78.7508C24.2941 78.839 24.0708 78.8844 23.8452 78.8844C23.6195 78.8844 23.3962 78.839 23.1877 78.7508C22.9793 78.6626 22.7899 78.5333 22.6304 78.3703L14.1134 69.6697C13.9538 69.5068 13.8272 69.3134 13.7408 69.1005C13.6543 68.8875 13.6099 68.6593 13.6099 68.4288C13.6099 68.1983 13.6543 67.9701 13.7408 67.7571C13.8272 67.5442 13.9538 67.3508 14.1134 67.1879C14.7818 66.502 15.8699 66.502 16.5401 67.1879L23.8445 74.6482L39.6687 58.4857C40.3384 57.8014 41.4265 57.8014 42.0951 58.4857ZM86.4248 57.4718V43.438C86.4248 42.4684 87.1946 41.6833 88.1425 41.6833C89.0903 41.6833 89.8586 42.4681 89.8586 43.438V57.4718C89.8586 58.4401 89.0903 59.2249 88.1425 59.2249C87.1946 59.2249 86.4248 58.4398 86.4248 57.4718ZM72.6871 57.4718V43.438C72.6871 42.9728 72.868 42.5267 73.19 42.1978C73.512 41.8688 73.9487 41.6841 74.404 41.6841C74.8594 41.6841 75.2961 41.8688 75.6181 42.1978C75.94 42.5267 76.1209 42.9728 76.1209 43.438V57.4718C76.1209 57.9367 75.9401 58.3826 75.6183 58.7114C75.2964 59.0402 74.8599 59.2249 74.4048 59.2249C74.1793 59.225 73.9561 59.1797 73.7477 59.0917C73.5394 59.0036 73.3501 58.8745 73.1906 58.7117C73.0311 58.5489 72.9045 58.3556 72.8181 58.1429C72.7318 57.9301 72.6872 57.7021 72.6871 57.4718ZM58.9495 57.4718V43.438C58.9494 43.2076 58.9936 42.9795 59.0798 42.7667C59.166 42.5538 59.2924 42.3604 59.4517 42.1975C59.6111 42.0345 59.8003 41.9052 60.0086 41.817C60.2169 41.7288 60.4401 41.6833 60.6656 41.6833C61.1211 41.6833 61.558 41.8682 61.8801 42.1973C62.2022 42.5263 62.3832 42.9726 62.3833 43.438V57.4718C62.3829 57.9369 62.2018 58.3828 61.8797 58.7116C61.5576 59.0403 61.1209 59.2249 60.6656 59.2249C60.2105 59.2248 59.774 59.0401 59.4522 58.7113C59.1304 58.3826 58.9496 57.9367 58.9495 57.4718ZM94.0476 86.1809C94.0476 88.8579 91.9132 91.0383 89.2883 91.0383C86.665 91.0383 84.5306 88.8579 84.5306 86.1809C84.5306 83.4994 86.665 81.319 89.2883 81.319C91.9132 81.319 94.0476 83.4994 94.0476 86.1809ZM63.7782 86.1809C63.7782 88.8579 61.6439 91.0383 59.0205 91.0383C56.3987 91.0383 54.2628 88.8579 54.2628 86.1809C54.2628 83.4994 56.3984 81.319 59.0205 81.319C61.6439 81.319 63.7782 83.4994 63.7782 86.1809ZM26.9119 98.3995C37.4215 94.7706 43.8141 88.2503 47.0061 77.9133C49.861 68.6701 49.7105 57.6325 49.4486 47.7037C47.3132 47.3306 45.1952 46.8607 43.1007 46.2951C42.6465 46.1737 42.1978 46.0453 41.7464 45.9166C41.6234 45.9455 41.4977 45.9604 41.3716 45.961C40.9114 45.961 40.47 45.7645 40.1488 45.4304C35.3334 43.9093 30.8186 41.9286 26.9119 39.611C20.3474 43.5069 12.2898 46.3246 4.37802 47.704C4.11768 57.6328 3.9626 68.6704 6.81897 77.9136C10.0126 88.2503 16.4052 94.7706 26.9119 98.3995ZM108.544 33.4822H39.3197L42.59 42.5138C45.5657 43.3743 48.3569 44.0009 51.3788 44.4634C52.2007 44.5905 52.8201 45.3015 52.8418 46.15C53.0255 52.9377 53.2225 60.3049 52.5032 67.4254L90.1915 67.4283C93.6873 67.4283 96.6508 65.4932 98.1196 62.2517L110.067 35.9223C110.189 35.661 110.244 35.3723 110.226 35.0835C110.209 34.7946 110.119 34.5151 109.967 34.2711C109.815 34.0271 109.604 33.8267 109.355 33.6887C109.106 33.5507 108.827 33.4797 108.544 33.4822ZM50.7061 17.8934C50.7061 17.7013 50.864 17.5416 51.0505 17.5416H80.4719V29.9731H50.7061V17.8934ZM84.2501 3.5078H98.4451C98.6318 3.5078 98.7895 3.66753 98.7895 3.85962V29.9731H83.9057V3.85962C83.9057 3.66753 84.0633 3.5078 84.2501 3.5078ZM22.5579 20.6133V23.6257C22.5579 24.3959 21.2687 25.2916 19.6059 25.2916H6.71907C5.05788 25.2916 3.76868 24.3959 3.76868 23.6257V21.8475C3.76868 21.0789 5.05788 20.1831 6.71907 20.1831H18.3081C18.4542 20.2098 18.5515 20.2951 18.9215 20.2925L21.9051 20.2526C22.2641 20.3486 22.4943 20.5157 22.5579 20.6133ZM90.1915 70.9363C95.0591 70.9363 99.1888 68.2415 101.236 63.7286L113.184 37.398C114.76 33.9283 112.284 29.9731 108.544 29.9731H102.223V3.85962C102.223 1.73093 100.529 0 98.4451 0H84.2501C82.1663 0 80.4719 1.73093 80.4719 3.85962V14.0338H51.0505C48.9655 14.0338 47.2724 15.7647 47.2724 17.8934V29.9731H38.052L35.2549 22.2497C34.0265 18.8544 30.9589 16.674 27.4224 16.674C27.3861 16.674 27.347 16.674 27.311 16.6769L22.2117 16.7419C21.9281 16.698 21.6418 16.6752 21.355 16.6738H6.71907C3.13916 16.6738 0.333374 18.9473 0.333374 21.8475V23.6257C0.333374 26.5259 3.13916 28.7994 6.71907 28.7994H19.6059C23.1871 28.7994 25.9914 26.5259 25.9914 23.6257L25.9712 20.2009L27.4226 20.1831C29.5366 20.1831 31.2992 21.4367 32.0342 23.4662L38.437 41.1571C34.5549 39.7469 30.9461 38.0249 27.8061 36.0721C27.5369 35.9046 27.2278 35.8161 26.9126 35.8161C26.5973 35.8161 26.2882 35.9046 26.019 36.0721C19.2677 40.2674 10.7216 43.1997 2.44755 44.4637C2.04876 44.5248 1.68371 44.7272 1.41627 45.0356C1.14883 45.3439 0.996037 45.7385 0.984616 46.1502C0.698213 56.725 0.37553 68.7103 3.54436 78.9688C7.10384 90.4926 14.5761 97.9988 26.3836 101.915C26.7283 102.028 27.0994 102.028 27.4441 101.915C38.4498 98.2635 45.6863 91.4919 49.502 81.2569C50.2575 81.3577 51.561 81.319 52.3569 81.319C48.4985 86.836 52.3653 94.5458 59.0203 94.5458C65.6919 94.5458 69.5342 86.8107 65.6821 81.319H82.6262C78.7744 86.8102 82.6162 94.5458 89.2881 94.5458C95.9451 94.5458 99.8089 86.8349 95.9515 81.319H102.506C103.457 81.319 104.224 80.5342 104.224 79.5659C104.224 78.5976 103.457 77.8112 102.506 77.8112H50.6221C51.2473 75.5821 51.7174 73.2806 52.0692 70.9348L90.1915 70.9363Z" fill="#8B5CF6"/>
</g>
</g>
</svg>
