<svg width="50.000000" height="74.000000" viewBox="0 0 50 74" fill="none" xmlns="http://www.w3.org/2000/svg" xmlns:xlink="http://www.w3.org/1999/xlink">
	<desc>
			Created with Pixso.
	</desc>
	<defs/>
	<mask id="mask12_126" mask-type="alpha" maskUnits="userSpaceOnUse" x="0.000000" y="0.000000" width="50.000000" height="74.000000">
		<path id="Vector" d="M0 0L50 0L50 74L0 74L0 0Z" fill="#000000" fill-opacity="1.000000" fill-rule="evenodd"/>
	</mask>
	<g mask="url(#mask12_126)">
		<path id="Vector" d="M25.9083 0C23.1091 0.000732422 20.4248 1.10059 18.4454 3.05737C16.4661 5.01416 15.3538 7.66797 15.353 10.4355L15.353 15.176L10.5578 15.176C9.17068 15.175 7.79689 15.4443 6.51511 15.9685C5.23332 16.4929 4.0687 17.262 3.08786 18.2317C2.10701 19.2014 1.32921 20.353 0.798935 21.6201C0.268661 22.8875 -0.00364685 24.2456 -0.00244141 25.6169L-0.00244141 36.0488L15.3505 36.0488L15.3505 45.53L10.5554 45.53C7.75537 45.5298 5.06987 46.6289 3.08951 48.5859C1.10913 50.543 -0.00393677 53.1973 -0.00491333 55.9653L-0.00491333 73.9944L10.5603 73.9944C11.9462 73.9939 13.3183 73.7234 14.5984 73.198C15.8784 72.6733 17.0413 71.9041 18.0207 70.9348C19.0001 69.9656 19.7767 68.8149 20.3063 67.5486C20.8358 66.2822 21.1079 64.9258 21.1071 63.5557L21.1206 63.5557L21.1206 56.668L21.0923 56.6716L21.0923 12.7905L21.1157 12.7961L21.1157 10.4373C21.1181 9.17944 21.6237 7.97388 22.522 7.08325C23.4204 6.19263 24.6386 5.6897 25.9108 5.68384L44.2484 5.68384L44.2484 10.4373C44.2445 11.6943 43.7372 12.8989 42.8374 13.7874C41.9377 14.6758 40.7187 15.1758 39.4471 15.178L23.2858 15.178L23.2858 20.8679L39.4446 20.8679C42.2438 20.8682 44.9285 19.7688 46.9079 17.8123C48.8875 15.8555 49.9997 13.2017 50 10.4343L50 -0.0012207L25.9083 0ZM15.353 30.3582L5.75905 30.3582L5.75905 25.6177C5.76115 24.3584 6.26732 23.1511 7.16701 22.2598C8.06664 21.3684 9.28664 20.8655 10.5603 20.8606L15.3554 20.8606L15.353 30.3582ZM15.353 63.5608C15.3508 64.8179 14.8451 66.0232 13.9465 66.9121C13.0478 67.8018 11.8294 68.3032 10.5578 68.3062L5.75658 68.3062L5.75658 55.9685C5.75774 54.7104 6.26416 53.5046 7.16447 52.6157C8.06485 51.7266 9.28537 51.2275 10.5578 51.228L15.353 51.228L15.353 63.5608ZM23.2858 36.0483L35.3965 36.0483L35.3965 40.7937C35.3918 42.0508 34.8842 43.2546 33.9846 44.1428C33.0851 45.031 31.8666 45.5312 30.5952 45.5344L23.2858 45.5344L23.2858 51.228L30.5977 51.228C31.9841 51.2288 33.3569 50.9592 34.6379 50.4351C35.9188 49.9109 37.0828 49.1423 38.063 48.1731C39.0434 47.2039 39.8208 46.0532 40.3511 44.7869C40.8813 43.5205 41.1538 42.1631 41.1531 40.7925L41.158 40.7925L41.158 30.3569L23.2858 30.3569L23.2858 36.0483Z" fill="#A78BFA" fill-opacity="1.000000" fill-rule="nonzero"/>
	</g>
</svg>
