<svg width="50" height="74" viewBox="0 0 50 74" fill="none" xmlns="http://www.w3.org/2000/svg">
<g id="logo">
<g id="Clip path group">
<mask id="mask0_9687_15" style="mask-type:luminance" maskUnits="userSpaceOnUse" x="0" y="0" width="50" height="74">
<g id="clip0">
<path id="Vector" d="M50 0H0V74H50V0Z" fill="white"/>
</g>
</mask>
<g mask="url(#mask0_9687_15)">
<g id="Group">
<path id="Vector_2" d="M25.9083 -5.73216e-05C23.1091 0.000748212 20.4248 1.10045 18.4454 3.05731C16.4661 5.01416 15.3538 7.66802 15.3529 10.4354V15.176H10.5578C9.17068 15.1749 7.7969 15.4442 6.51511 15.9685C5.23333 16.4928 4.0687 17.2619 3.08785 18.2317C2.10701 19.2014 1.3292 20.3529 0.798933 21.6201C0.268667 22.8874 -0.00364963 24.2456 -0.00243689 25.617V36.0488H15.3505V45.5301H10.5554C7.75537 45.5297 5.06987 46.6289 3.08951 48.5859C1.10914 50.5428 -0.00393524 53.1971 -0.00491333 55.9654V73.9943H10.5603C11.9462 73.9938 13.3183 73.7233 14.5984 73.198C15.8784 72.6732 17.0413 71.904 18.0207 70.9347C19.0001 69.9654 19.7767 68.8148 20.3063 67.5485C20.8358 66.2821 21.1079 64.9256 21.1071 63.5556H21.1206V56.6678L21.0923 56.6715V12.7905L21.1157 12.796V10.4372C21.1181 9.17949 21.6237 7.97376 22.5221 7.08321C23.4204 6.19265 24.6386 5.68961 25.9108 5.68383H44.2484V10.4372C44.2445 11.6944 43.7372 12.8989 42.8374 13.7872C41.9377 14.6756 40.7187 15.1756 39.4471 15.1779H23.2858V20.8678H39.4446C42.2438 20.868 44.9285 19.7688 46.9079 17.8122C48.8875 15.8555 49.9997 13.2016 50 10.4342V-0.0012722L25.9083 -5.73216e-05ZM15.3529 30.3582H5.75905V25.6176C5.76116 24.3584 6.26732 23.1512 7.167 22.2598C8.06663 21.3684 9.28663 20.8653 10.5603 20.8605H15.3554L15.3529 30.3582ZM15.3529 63.5608C15.3508 64.8178 14.8451 66.0231 13.9465 66.9122C13.0478 67.8017 11.8294 68.303 10.5578 68.3062H5.75658V55.9685C5.75774 54.7105 6.26416 53.5046 7.16447 52.6156C8.06484 51.7265 9.28537 51.2274 10.5578 51.2279H15.3529V63.5608ZM23.2858 36.0482H35.3965V40.7936C35.3918 42.0506 34.8842 43.2546 33.9846 44.1428C33.0851 45.031 31.8666 45.5313 30.5952 45.5343H23.2858V51.2279H30.5977C31.9841 51.2286 33.3569 50.9592 34.6379 50.435C35.9188 49.9109 37.0828 49.1422 38.0631 48.1731C39.0434 47.2039 39.8208 46.0532 40.3511 44.7868C40.8813 43.5204 41.1538 42.1631 41.1531 40.7925H41.1579V30.357H23.2858V36.0482Z" fill="#A78BFA"/>
</g>
</g>
</g>
</g>
</svg>
